<?xml version="1.0" encoding="UTF-8"?>
<svg id="Layer_2" data-name="Layer 2" xmlns="http://www.w3.org/2000/svg" viewBox="0 0 295.27 19.66">
  <defs>
    <style>
      .cls-1 {
        fill: #fff;
      }
    </style>
  </defs>
  <g id="Layer_1-2" data-name="Layer 1">
    <g>
      <path class="cls-1" d="M4.05,3.37c2.07,0,3.48,1.12,3.48,3.35,0,2.45-1.58,3.75-4.03,3.75h-1.21v5.17H0V3.37h4.05ZM2.29,8.52h1.06c.99,0,1.8-.58,1.8-1.67,0-.95-.61-1.46-1.62-1.46h-1.24v3.13Z"/>
      <path class="cls-1" d="M11.38,3.37v10.25h4.36v2.02h-6.64V3.37h2.29Z"/>
      <path class="cls-1" d="M21.42,3.37l3.37,12.26h-2.58l-.61-2.97h-2.66l-.67,2.97h-2.38l3.22-12.26h2.3ZM20.21,6.39l-.88,4.32h1.85l-.94-4.32h-.04Z"/>
      <path class="cls-1" d="M29.03,3.37v9.76c0,1.53-.65,2.7-2.38,2.7-.52,0-.86-.09-1.35-.29v-2.03c.27.22.43.27.65.27.41,0,.79-.2.79-1.08V3.37h2.29Z"/>
      <path class="cls-1" d="M36.9,3.37l1.82,9.07h.04l1.75-9.07h2.47l-3.11,12.26h-2.34l-3.08-12.26h2.47Z"/>
      <path class="cls-1" d="M52.22,9.45c0,3.76-1.58,6.37-4.52,6.37s-4.36-2.56-4.36-6.43,1.73-6.23,4.25-6.23c3.17,0,4.63,2.67,4.63,6.28ZM47.79,13.81c1.31,0,2.11-1.67,2.11-4.36s-.83-4.27-2.03-4.27c-1.42,0-2.2,1.6-2.2,4.34s.81,4.29,2.12,4.29Z"/>
      <path class="cls-1" d="M56.16,3.37v10.25h4.36v2.02h-6.64V3.37h2.29Z"/>
      <path class="cls-1" d="M68.58,3.37v2.02h-4.59v2.84h4.29v1.94h-4.29v3.44h4.59v2.02h-6.88V3.37h6.88Z"/>
      <path class="cls-1" d="M71.89,3.37l1.42,4.25h.04l1.46-4.25h2.68l-3.01,6.68v5.58h-2.29v-5.58l-2.93-6.68h2.63Z"/>
      <path class="cls-1" d="M82.35,3.37c1.93,0,3.33.95,3.33,2.86,0,1.31-.67,2.27-2.03,2.83v.04c1.85.2,2.86,1.21,2.86,2.95,0,2.36-1.8,3.58-3.91,3.58h-3.87V3.37h3.62ZM81.02,8.25h.85c.7,0,1.5-.45,1.5-1.51,0-.85-.54-1.35-1.22-1.35h-1.12v2.86ZM82.31,13.61c1.03,0,1.87-.63,1.87-1.76,0-1.03-.72-1.66-1.89-1.66h-1.28v3.42h1.3Z"/>
      <path class="cls-1" d="M96.1,9.45c0,3.76-1.58,6.37-4.52,6.37s-4.36-2.56-4.36-6.43,1.73-6.23,4.25-6.23c3.17,0,4.63,2.67,4.63,6.28ZM91.67,13.81c1.31,0,2.11-1.67,2.11-4.36s-.83-4.27-2.04-4.27c-1.42,0-2.2,1.6-2.2,4.34s.81,4.29,2.12,4.29Z"/>
      <path class="cls-1" d="M100.04,3.37v10.25h4.36v2.02h-6.64V3.37h2.29Z"/>
      <path class="cls-1" d="M107.39,3.37v8.61c0,1.03.47,1.91,1.46,1.91s1.5-.72,1.5-2.11V3.37h2.29v8.3c0,2.43-1.33,4.16-3.82,4.16s-3.71-1.6-3.71-3.84V3.37h2.29Z"/>
      <path class="cls-1" d="M125.8,3.87v2.29c-.72-.63-1.42-.97-2.09-.97-.59,0-1.21.23-1.76.83-.58.63-.99,1.62-.99,3.6,0,2.16.77,4.09,1.82,4.09.63,0,1.04-.74,1.04-1.4v-1.35h-1.44v-1.94h3.69v6.63h-1.13l-.67-.99c-.58.85-1.1,1.19-1.84,1.19-2.25,0-3.8-3.01-3.8-6.27,0-3.8,1.85-6.39,4.72-6.39.86,0,1.58.2,2.45.7Z"/>
      <path class="cls-1" d="M131.2,3.37c2.39,0,3.75.95,3.75,2.94,0,1.67-.68,2.65-2.72,3.26v.04c1.31.2,1.76,1.13,2.12,2.56l.86,3.48h-2.48l-.61-3.08c-.32-1.6-.81-2.07-1.91-2.07h-.2v5.15h-2.29V3.37h3.48ZM130.01,8.53h.88c.88,0,1.73-.59,1.73-1.69,0-.86-.59-1.46-1.37-1.46h-1.24v3.15Z"/>
      <path class="cls-1" d="M138.62,3.37v8.61c0,1.03.47,1.91,1.46,1.91s1.5-.72,1.5-2.11V3.37h2.29v8.3c0,2.43-1.33,4.16-3.82,4.16s-3.71-1.6-3.71-3.84V3.37h2.29Z"/>
      <path class="cls-1" d="M149.96,3.37c2.07,0,3.47,1.12,3.47,3.35,0,2.45-1.58,3.75-4.03,3.75h-1.21v5.17h-2.29V3.37h4.05ZM148.19,8.52h1.06c.99,0,1.8-.58,1.8-1.67,0-.95-.61-1.46-1.62-1.46h-1.24v3.13Z"/>
      <path class="cls-1" d="M157.28,3.37v10.25h4.36v2.02h-6.64V3.37h2.29Z"/>
      <path class="cls-1" d="M167.33,3.37l3.37,12.26h-2.57l-.61-2.97h-2.67l-.67,2.97h-2.38l3.22-12.26h2.3ZM166.12,6.39l-.88,4.32h1.85l-.94-4.32h-.04Z"/>
      <path class="cls-1" d="M175.46,3.37c2.4,0,3.75.95,3.75,2.94,0,1.67-.68,2.65-2.72,3.26v.04c1.31.2,1.76,1.13,2.12,2.56l.86,3.48h-2.48l-.61-3.08c-.32-1.6-.81-2.07-1.91-2.07h-.2v5.15h-2.29V3.37h3.47ZM174.27,8.53h.88c.88,0,1.73-.59,1.73-1.69,0-.86-.59-1.46-1.37-1.46h-1.24v3.15Z"/>
      <path class="cls-1" d="M183.06,3.37v12.26h-2.29V3.37h2.29Z"/>
      <path class="cls-1" d="M191.07,3.37l1.82,9.07h.04l1.75-9.07h2.47l-3.11,12.26h-2.34l-3.08-12.26h2.47Z"/>
      <path class="cls-1" d="M205.24,3.37v2.02h-4.59v2.84h4.29v1.94h-4.29v3.44h4.59v2.02h-6.88V3.37h6.88Z"/>
      <path class="cls-1" d="M213.87,3.37l1.96,5.17,1.98-5.17h2.56v12.26h-2.16v-5.47c0-.31.04-2.3.07-3.46l-.04-.04c-.09.52-.94,2.83-1.19,3.49l-1.22,3.24-1.19-3.19c-.2-.54-1.17-3.21-1.21-3.55l-.04.04c.02,1.01.07,3.33.07,3.46v5.47h-2.16V3.37h2.56Z"/>
      <path class="cls-1" d="M227.14,3.37l3.37,12.26h-2.58l-.61-2.97h-2.67l-.67,2.97h-2.38l3.22-12.26h2.3ZM225.93,6.39l-.88,4.32h1.85l-.94-4.32h-.04Z"/>
      <path class="cls-1" d="M234.81,15.75c-2.29-.4-3.58-2.79-3.58-6.21,0-3.85,1.75-6.37,4.38-6.37.58,0,1.03.07,2.02.58v2.34c-.56-.58-1.08-.86-1.67-.86-1.6,0-2.4,1.82-2.4,4.43,0,2.39.96,4.12,2.34,4.12.56,0,1.13-.27,1.73-.86v2.3c-.65.36-1.15.56-1.8.59v.85h.25c1.06,0,1.71.56,1.71,1.33,0,.94-.85,1.67-2.14,1.67-.56,0-.99-.13-1.37-.27v-.99c.59.32.92.36,1.21.36.5,0,.99-.29.99-.72,0-.27-.16-.54-.99-.54h-.67v-1.75Z"/>
      <path class="cls-1" d="M250.22,3.37v2.02h-2.67v10.25h-2.29V5.38h-2.66v-2.02h7.62Z"/>
      <path class="cls-1" d="M255.11,3.37l3.37,12.26h-2.58l-.61-2.97h-2.67l-.67,2.97h-2.38l3.22-12.26h2.3ZM253.9,6.39l-.88,4.32h1.85l-.94-4.32h-.04Z"/>
      <path class="cls-1" d="M262.09,3.37v4.57h.04l2.63-4.57h2.5l-2.75,4.34,3.08,7.92h-2.59l-1.94-5.62-.96,1.53v4.09h-2.29V3.37h2.29Z"/>
      <path class="cls-1" d="M269.94,3.37l1.82,9.07h.04l1.75-9.07h2.47l-3.11,12.26h-2.34l-3.08-12.26h2.47Z"/>
      <path class="cls-1" d="M279.52,1.21c0,.67-.54,1.21-1.21,1.21s-1.21-.54-1.21-1.21.54-1.21,1.21-1.21,1.21.56,1.21,1.21ZM279.46,3.37v12.26h-2.29V3.37h2.29Z"/>
      <path class="cls-1" d="M284.22,3.37l1.96,5.17,1.98-5.17h2.56v12.26h-2.16v-5.47c0-.31.04-2.3.07-3.46l-.04-.04c-.09.52-.94,2.83-1.19,3.49l-1.22,3.24-1.19-3.19c-.2-.54-1.17-3.21-1.21-3.55l-.04.04c.02,1.01.07,3.33.07,3.46v5.47h-2.16V3.37h2.56Z"/>
      <path class="cls-1" d="M295.27,1.21c0,.67-.54,1.21-1.21,1.21s-1.21-.54-1.21-1.21.54-1.21,1.21-1.21,1.21.56,1.21,1.21ZM295.21,3.37v12.26h-2.29V3.37h2.29Z"/>
    </g>
  </g>
</svg>