<?xml version="1.0" encoding="UTF-8"?>
<svg id="Layer_2" data-name="Layer 2" xmlns="http://www.w3.org/2000/svg" viewBox="0 0 35.23 35.3">
  <defs>
    <style>
      .cls-1 {
        fill: #fff;
      }
    </style>
  </defs>
  <g id="Gruplar">
    <g>
      <path class="cls-1" d="M27.02,6.16c-1.17,0-2.12.95-2.12,2.12s.95,2.12,2.12,2.12,2.12-.95,2.12-2.12-.95-2.12-2.12-2.12Z"/>
      <path class="cls-1" d="M14.8,9.08c-3.75,1.24-6.27,4.77-6.22,8.72.05,3.87,2.56,7.29,6.24,8.49,3.68,1.2,7.71-.07,10.03-3.17,2.37-3.16,2.42-7.5.12-10.71-2.3-3.21-6.42-4.56-10.17-3.32ZM22.56,20.85c-1.39,2.17-4.04,3.18-6.52,2.48-2.48-.7-4.22-2.94-4.27-5.53-.05-2.52,1.5-4.79,3.86-5.64,2.36-.86,5.01-.11,6.58,1.86,1.57,1.97,1.71,4.72.35,6.83Z"/>
      <path class="cls-1" d="M35.15,12.06c-.09-3.39-.28-6.37-2.76-8.93C29.58.21,26.11.18,22.33.1,18.32.02,13.92-.11,9.93.18,4.24.59.77,3.78.2,9.49-.1,12.45.02,15.77.04,18.76c0,2.19-.04,4.45.12,6.63.38,5.28,3.13,8.77,8.43,9.67,1.15.2,2.24.14,3.4.16,3.86.07,7.84.12,11.71,0,2.92-.09,5.81-.37,8.1-2.4,2.79-2.47,3.24-5.43,3.36-8.99.13-3.86.1-7.91,0-11.77ZM31.99,23.31c-.07,2.2-.08,4.47-1.52,6.27-1.87,2.34-4.36,2.4-7.14,2.48-3.74.11-7.66.11-11.4,0-2.71-.08-5.13-.13-7.04-2.32-1.52-1.75-1.59-4.3-1.66-6.51-.06-1.63-.04-3.27-.04-4.91,0-2.83-.14-6.13.21-8.91.56-4.55,3.39-5.91,7.61-6.12,3.39-.17,6.92-.09,10.32-.04,2.67.04,6.2-.21,8.34,1.66,2.21,1.93,2.24,4.4,2.32,7.13.11,3.7.11,7.56,0,11.25Z"/>
    </g>
  </g>
</svg>